<?xml version="1.0" encoding="utf-8"?>
<!-- Generator: Adobe Illustrator 15.0.2, SVG Export Plug-In . SVG Version: 6.00 Build 0)  -->
<!DOCTYPE svg PUBLIC "-//W3C//DTD SVG 1.1//EN" "http://www.w3.org/Graphics/SVG/1.1/DTD/svg11.dtd">
<svg version="1.1" id="Layer_1" xmlns="http://www.w3.org/2000/svg" xmlns:xlink="http://www.w3.org/1999/xlink" x="0px" y="0px"
	 width="24px" height="24px" viewBox="0 0 24 24" enable-background="new 0 0 24 24" xml:space="preserve">
<g>
	<path fill="#FFFFFF" d="M22.152,6.115c1.046,1.797,1.572,3.758,1.572,5.885s-0.526,4.09-1.572,5.885
		c-1.047,1.797-2.471,3.219-4.268,4.267c-1.795,1.047-3.759,1.575-5.885,1.575c-2.126,0-4.089-0.526-5.885-1.572
		c-1.796-1.048-3.22-2.471-4.267-4.268C0.799,16.09,0.274,14.128,0.274,12s0.525-4.088,1.573-5.885
		c1.048-1.796,2.47-3.219,4.267-4.267C7.911,0.8,9.874,0.275,12,0.275c2.126,0,4.088,0.525,5.885,1.573
		C19.682,2.897,21.105,4.318,22.152,6.115z M19.198,15.029c0.412-0.961,0.618-1.969,0.618-3.029c0-1.059-0.206-2.069-0.618-3.03
		s-0.971-1.793-1.673-2.497s-1.533-1.26-2.496-1.671C14.067,4.39,13.058,4.183,12,4.183c-1.059,0-2.07,0.205-3.031,0.619
		C8.007,5.215,7.175,5.771,6.473,6.474C5.771,7.176,5.214,8.008,4.8,8.971C4.389,9.932,4.183,10.942,4.183,12
		c0,1.061,0.206,2.068,0.618,3.029c0.414,0.963,0.97,1.795,1.673,2.496c0.702,0.702,1.534,1.261,2.496,1.672
		c0.961,0.41,1.972,0.619,3.031,0.619c1.058,0,2.067-0.207,3.03-0.619c0.961-0.413,1.792-0.97,2.496-1.672
		C18.228,16.825,18.786,15.992,19.198,15.029z M16.885,12.489v0.976c0,0.133-0.048,0.246-0.145,0.344
		c-0.097,0.097-0.212,0.145-0.344,0.145h-5.862c-0.133,0-0.248-0.048-0.344-0.145c-0.097-0.098-0.145-0.211-0.145-0.344V6.626
		c0-0.132,0.047-0.246,0.145-0.343c0.097-0.096,0.211-0.145,0.344-0.145h0.977c0.132,0,0.246,0.048,0.342,0.145
		C11.951,6.38,12,6.494,12,6.626V12h4.396c0.132,0,0.247,0.047,0.344,0.144C16.837,12.243,16.885,12.356,16.885,12.489z"/>
</g>
</svg>
