<?xml version="1.0" encoding="utf-8"?>
<!-- Generator: Adobe Illustrator 15.0.2, SVG Export Plug-In . SVG Version: 6.00 Build 0)  -->
<!DOCTYPE svg PUBLIC "-//W3C//DTD SVG 1.1//EN" "http://www.w3.org/Graphics/SVG/1.1/DTD/svg11.dtd">
<svg version="1.1" id="Layer_1" xmlns="http://www.w3.org/2000/svg" xmlns:xlink="http://www.w3.org/1999/xlink" x="0px" y="0px"
	 width="170px" height="270px" viewBox="0 0 170 270" enable-background="new 0 0 170 270" xml:space="preserve">
<g>
	<g>
		<defs>
			<rect id="SVGID_1_" x="3.321" y="6" width="163.359" height="258.536"/>
		</defs>
		<clipPath id="SVGID_2_">
			<use xlink:href="#SVGID_1_"  overflow="visible"/>
		</clipPath>
		<path clip-path="url(#SVGID_2_)" fill="#222222" d="M142.75,29.93C126.797,13.977,107.547,6,85,6
			c-22.549,0-41.797,7.977-57.75,23.93c-15.953,15.953-23.93,35.204-23.93,57.75c0,11.593,1.755,21.112,5.265,28.556l58.228,123.476
			c1.596,3.51,4.068,6.273,7.418,8.295c3.35,2.02,6.939,3.031,10.769,3.031c3.828,0,7.417-1.012,10.767-3.031
			c3.352-2.021,5.875-4.785,7.578-8.295l58.068-123.476c3.51-7.443,5.266-16.962,5.266-28.556
			C166.68,65.133,158.703,45.882,142.75,29.93"/>
		<path clip-path="url(#SVGID_2_)" fill="#FFFFFF" d="M39.311,41.894h45.002V54.44l7.462-6.971
			c17.793-13.939,33.125,3.067,33.125,3.067c9.48,11.431,4.461,23.419,4.461,23.419c-4.461,9.2-12.545,15.78-12.545,15.78
			l8.363,8.476c10.594,11.152,2.51,26.486,2.51,26.486c-7.807,15.891-25.65,12.778-25.65,12.778
			c-8.084-0.79-17.726-12.499-17.726-12.499c-8.201,13.939-21.305,12.499-21.305,12.499c-23.697,0-23.697-21.421-23.697-21.421
			V41.894z"/>
		<path clip-path="url(#SVGID_2_)" fill="#D1D3D4" d="M85,264.536c37.781,0,68.41-0.803,68.41-1.794
			c0-0.99-30.629-1.794-68.41-1.794c-37.782,0-68.41,0.804-68.41,1.794C16.59,263.733,47.219,264.536,85,264.536"/>
		<path clip-path="url(#SVGID_2_)" fill="#222222" d="M36.679,167.268l25.79,2.256C52.657,113.913,94.09,75.42,94.09,75.42
			C42.866,96.561,36.679,167.268,36.679,167.268"/>
	</g>
	<line fill="none" stroke="#FFFFFF" stroke-width="5" x1="43.264" y1="119.874" x2="70.049" y2="119.874"/>
	<line fill="none" stroke="#FFFFFF" stroke-width="3" x1="52.651" y1="99.165" x2="90.211" y2="99.165"/>
	<line fill="none" stroke="#FFFFFF" stroke-width="2" x1="68.871" y1="86.279" x2="94.791" y2="86.279"/>
	<line fill="none" stroke="#FFFFFF" x1="76.795" y1="78.896" x2="93.953" y2="78.896"/>
	<g>
		<defs>
			<rect id="SVGID_3_" x="3.321" y="6" width="163.359" height="258.536"/>
		</defs>
		<clipPath id="SVGID_4_">
			<use xlink:href="#SVGID_3_"  overflow="visible"/>
		</clipPath>
		<path clip-path="url(#SVGID_4_)" fill="#222222" d="M5.893,97.915c51.384-16.788,89.305-22.681,89.305-22.681
			c-10.823,8.083,67.229,32.975,67.229,32.975V92.443c-87.09-9.648-64.404-18.316-64.404-18.316
			C48.143,83.335,20.872,87.731,5.948,89.656C0.984,90.296,5.893,97.915,5.893,97.915"/>
		<path clip-path="url(#SVGID_4_)" fill="#CB2026" d="M32.352,174.248c0,0-6.848,0-6.848,6.849v22.51c0,0,0,6.849,6.848,6.849
			h105.297c0,0,6.848,0,6.848-6.849v-22.51c0,0,0-6.849-6.848-6.849H32.352z"/>
	</g>
	<text transform="matrix(1 0 0 1 36.8247 201.6504)"><tspan x="0" y="0" fill="#FFFFFF" font-family="'OSP-DIN'" font-size="25.6804">ON THE R</tspan><tspan x="66.333" y="0" fill="#FFFFFF" font-family="'OSP-DIN'" font-size="25.6804">O</tspan><tspan x="75.855" y="0" fill="#FFFFFF" font-family="'OSP-DIN'" font-size="25.6804">AD</tspan></text>
</g>
</svg>
