<?xml version="1.0" encoding="utf-8"?>
<!-- Generator: Adobe Illustrator 15.0.2, SVG Export Plug-In . SVG Version: 6.00 Build 0)  -->
<!DOCTYPE svg PUBLIC "-//W3C//DTD SVG 1.1//EN" "http://www.w3.org/Graphics/SVG/1.1/DTD/svg11.dtd">
<svg version="1.1" id="Layer_1" xmlns="http://www.w3.org/2000/svg" xmlns:xlink="http://www.w3.org/1999/xlink" x="0px" y="0px"
	 width="222px" height="232px" viewBox="0 0 222 232" enable-background="new 0 0 222 232" xml:space="preserve">
<g>
	<path fill="#FFFFFF" d="M1,0.644h108.347V30.85l17.964-16.781c42.837-33.561,79.755,7.384,79.755,7.384
		c22.821,27.52,10.739,56.383,10.739,56.383c-10.739,22.15-30.205,37.99-30.205,37.99l20.137,20.407
		c25.507,26.848,6.042,63.765,6.042,63.765c-18.795,38.26-61.754,30.766-61.754,30.766c-19.465-1.903-42.678-30.094-42.678-30.094
		c-19.746,33.561-51.292,30.094-51.292,30.094C1,230.763,1,179.189,1,179.189V0.644z"/>
</g>
</svg>
