<?xml version="1.0" encoding="utf-8"?>
<!-- Generator: Adobe Illustrator 15.0.2, SVG Export Plug-In . SVG Version: 6.00 Build 0)  -->
<!DOCTYPE svg PUBLIC "-//W3C//DTD SVG 1.1//EN" "http://www.w3.org/Graphics/SVG/1.1/DTD/svg11.dtd">
<svg version="1.1" id="Layer_1" xmlns="http://www.w3.org/2000/svg" xmlns:xlink="http://www.w3.org/1999/xlink" x="0px" y="0px"
	 width="25px" height="30px" viewBox="0 0 25 30" enable-background="new 0 0 25 30" xml:space="preserve">
<g>
	<polygon fill="#CB2026" points="2.178,17.732 12.5,29.82 22.824,17.732 	"/>
	<g>
		<g>
			<path fill="#CB2026" d="M12.5,23.805c6.523,0,11.812-5.289,11.812-11.812S19.023,0.179,12.5,0.179
				c-6.523,0-11.812,5.289-11.812,11.812C0.688,18.516,5.977,23.805,12.5,23.805"/>
		</g>
		<g>
			<path fill="#FFFFFF" d="M5.739,4.617h7.169v1.998l1.188-1.11c2.834-2.22,5.277,0.488,5.277,0.488
				c1.51,1.82,0.709,3.73,0.709,3.73c-0.709,1.465-1.998,2.513-1.998,2.513l1.332,1.35c1.688,1.776,0.398,4.22,0.398,4.22
				c-1.244,2.53-4.086,2.035-4.086,2.035c-1.287-0.127-2.822-1.99-2.822-1.99c-1.306,2.22-3.394,1.99-3.394,1.99
				c-3.774,0-3.774-3.412-3.774-3.412L5.739,4.617L5.739,4.617z"/>
		</g>
	</g>
</g>
</svg>
