<?xml version="1.0" encoding="utf-8"?>
<!-- Generator: Adobe Illustrator 15.0.2, SVG Export Plug-In . SVG Version: 6.00 Build 0)  -->
<!DOCTYPE svg PUBLIC "-//W3C//DTD SVG 1.1//EN" "http://www.w3.org/Graphics/SVG/1.1/DTD/svg11.dtd">
<svg version="1.1" id="Layer_1" xmlns="http://www.w3.org/2000/svg" xmlns:xlink="http://www.w3.org/1999/xlink" x="0px" y="0px"
	 width="400px" height="500px" viewBox="0 0 400 500" enable-background="new 0 0 400 500" xml:space="preserve">
<g>
	<g>
		<path fill="#CB2026" d="M200,397.032c109.361,0,198.016-88.655,198.016-198.016C398.016,89.655,309.361,1,200,1
			S1.984,89.655,1.984,199.017C1.984,308.377,90.639,397.032,200,397.032"/>
		<path fill="#FFFFFF" d="M77.835,70.782h120.157v33.498l19.922-18.61c47.509-37.22,88.45,8.188,88.45,8.188
			c25.31,30.521,11.91,62.529,11.91,62.529c-11.91,24.565-33.498,42.132-33.498,42.132l22.332,22.63
			c28.287,29.776,6.7,70.717,6.7,70.717c-20.844,42.431-68.484,34.119-68.484,34.119c-21.588-2.11-47.332-33.374-47.332-33.374
			c-21.897,37.219-56.884,33.374-56.884,33.374c-63.273,0-63.273-57.195-63.273-57.195V70.782z"/>
		<path fill="#CB2026" d="M57.606,335.848C117.679,387.02,199.939,499,199.939,499c74.595-105.306,142.454-163.152,142.454-163.152
			H57.606z"/>
		<path d="M92.69,355.736c0,0-13.958,0-13.958,13.957v45.882c0,0,0,13.958,13.958,13.958h214.618c0,0,13.959,0,13.959-13.958
			v-45.882c0,0,0-13.957-13.959-13.957H92.69z"/>
	</g>
	<g>
		<path fill="#FFFFFF" d="M106.305,377.251c1.534-1.543,3.382-2.313,5.547-2.313c2.163,0,4.012,0.771,5.545,2.313
			c1.534,1.542,2.301,3.395,2.301,5.558v20.933c0,2.164-0.767,4.013-2.301,5.546c-1.533,1.533-3.382,2.3-5.545,2.3
			c-2.165,0-4.013-0.767-5.547-2.3c-1.533-1.533-2.3-3.382-2.3-5.546v-20.933C104.005,380.646,104.771,378.793,106.305,377.251z
			 M113.717,380.943c-0.511-0.511-1.134-0.767-1.865-0.767c-0.733,0-1.352,0.256-1.854,0.767c-0.503,0.511-0.754,1.134-0.754,1.865
			v7.412v6.134v7.387c0,0.732,0.251,1.351,0.754,1.853c0.502,0.503,1.12,0.754,1.854,0.754c0.731,0,1.354-0.251,1.865-0.754
			c0.511-0.502,0.767-1.12,0.767-1.853v-7.387v-6.134v-7.412C114.483,382.077,114.228,381.454,113.717,380.943z"/>
		<path fill="#FFFFFF" d="M124.195,374.938h5.239l5.239,18.324v-18.324h5.239v36.649h-5.239l-5.239-18.325v18.325h-5.239V374.938z"
			/>
		<path fill="#FFFFFF" d="M151.747,374.938h15.692v5.239H162.2v31.41h-5.214v-31.41h-5.239V374.938z"/>
		<path fill="#FFFFFF" d="M169.791,374.938h5.239v15.718h5.239v-15.718h5.239v36.649h-5.239v-15.692h-5.239v15.692h-5.239V374.938z"
			/>
		<path fill="#FFFFFF" d="M190.518,411.587v-36.649h15.718v5.239h-10.479v10.479h7.848v5.239h-7.848v10.453h10.479v5.239H190.518z"
			/>
		<path fill="#FFFFFF" d="M219.373,374.988l10.479,0.052c1.432,0,2.654,0.507,3.667,1.521c1.014,1.014,1.521,2.235,1.521,3.667
			v10.479c0,1.994-0.861,3.494-2.582,4.498l2.582,16.383h-5.188l-2.606-15.692h-2.685v15.692h-5.188V374.988z M224.561,380.177
			v10.581h3.298c0.562,0,1.034-0.2,1.418-0.601s0.575-0.865,0.575-1.393v-6.543c0-0.563-0.191-1.044-0.575-1.444
			s-0.856-0.601-1.418-0.601H224.561z"/>
		<path fill="#FFFFFF" d="M241.506,377.251c1.533-1.543,3.382-2.313,5.546-2.313s4.013,0.771,5.546,2.313
			c1.534,1.542,2.301,3.395,2.301,5.558v20.933c0,2.164-0.767,4.013-2.301,5.546c-1.533,1.533-3.382,2.3-5.546,2.3
			s-4.013-0.767-5.546-2.3s-2.3-3.382-2.3-5.546v-20.933C239.206,380.646,239.973,378.793,241.506,377.251z M248.918,380.943
			c-0.512-0.511-1.134-0.767-1.866-0.767s-1.351,0.256-1.853,0.767c-0.503,0.511-0.754,1.134-0.754,1.865v7.412v6.134v7.387
			c0,0.732,0.251,1.351,0.754,1.853c0.502,0.503,1.12,0.754,1.853,0.754s1.354-0.251,1.866-0.754
			c0.511-0.502,0.767-1.12,0.767-1.853v-7.387v-6.134v-7.412C249.685,382.077,249.429,381.454,248.918,380.943z"/>
		<path fill="#FFFFFF" d="M264.469,374.938h5.188l7.848,36.649h-5.189l-1.559-7.846l-7.387-0.052l-1.559,7.897h-5.188
			L264.469,374.938z M267.05,385.416l-2.632,13.137h5.29l-2.607-13.137H267.05z"/>
		<path fill="#FFFFFF" d="M280.11,374.938h10.479c1.432,0,2.654,0.507,3.668,1.521c1.014,1.015,1.521,2.253,1.521,3.719v26.223
			c0,1.431-0.507,2.653-1.521,3.667c-1.014,1.015-2.236,1.521-3.668,1.521H280.11V374.938z M285.299,380.126v26.273h3.297
			c0.562,0,1.035-0.192,1.419-0.575c0.383-0.384,0.574-0.856,0.574-1.419v-22.286c0-0.562-0.191-1.035-0.574-1.419
			c-0.384-0.383-0.856-0.574-1.419-0.574H285.299z"/>
	</g>
</g>
</svg>
