<?xml version="1.0" encoding="utf-8"?>
<!-- Generator: Adobe Illustrator 15.0.2, SVG Export Plug-In . SVG Version: 6.00 Build 0)  -->
<!DOCTYPE svg PUBLIC "-//W3C//DTD SVG 1.1//EN" "http://www.w3.org/Graphics/SVG/1.1/DTD/svg11.dtd">
<svg version="1.1" id="Layer_1" xmlns="http://www.w3.org/2000/svg" xmlns:xlink="http://www.w3.org/1999/xlink" x="0px" y="0px"
	 width="400px" height="500px" viewBox="0 0 400 500" enable-background="new 0 0 400 500" xml:space="preserve">
<g>
	<g>
		<path fill="#CB2026" d="M200,397.032c109.361,0,198.016-88.655,198.016-198.016S309.361,1,200,1
			C90.639,1,1.984,89.655,1.984,199.017C1.984,308.377,90.639,397.032,200,397.032"/>
		<path fill="#FFFFFF" d="M77.835,70.782h120.157v33.498l19.922-18.61c47.509-37.22,88.45,8.188,88.45,8.188
			c25.31,30.521,11.91,62.529,11.91,62.529c-11.91,24.565-33.499,42.132-33.499,42.132l22.333,22.63
			c28.286,29.776,6.699,70.717,6.699,70.717c-20.844,42.431-68.483,34.118-68.483,34.118c-21.588-2.109-47.332-33.373-47.332-33.373
			c-21.897,37.219-56.884,33.373-56.884,33.373c-63.273,0-63.273-57.194-63.273-57.194V70.782z"/>
		<path fill="#CB2026" d="M57.606,335.848C117.679,387.02,199.939,499,199.939,499c74.595-105.307,142.454-163.152,142.454-163.152
			H57.606L57.606,335.848z"/>
		<path d="M92.69,355.736c0,0-13.958,0-13.958,13.957v45.882c0,0,0,13.958,13.958,13.958h214.618c0,0,13.959,0,13.959-13.958
			v-45.882c0,0,0-13.957-13.959-13.957H92.69z"/>
	</g>
	<g>
		<path fill="#FFFFFF" d="M106.305,377.251c1.534-1.543,3.382-2.313,5.547-2.313c2.163,0,4.012,0.771,5.545,2.313
			c1.534,1.542,2.301,3.396,2.301,5.558v20.934c0,2.164-0.767,4.013-2.301,5.546c-1.533,1.532-3.382,2.3-5.545,2.3
			c-2.165,0-4.013-0.768-5.547-2.3c-1.533-1.533-2.3-3.382-2.3-5.546v-20.934C104.005,380.646,104.771,378.793,106.305,377.251z
			 M113.717,380.943c-0.511-0.512-1.134-0.768-1.865-0.768c-0.733,0-1.352,0.256-1.854,0.768c-0.503,0.511-0.754,1.134-0.754,1.865
			v7.411v6.134v7.388c0,0.731,0.251,1.351,0.754,1.853c0.502,0.504,1.12,0.754,1.854,0.754c0.731,0,1.354-0.25,1.865-0.754
			c0.511-0.502,0.767-1.119,0.767-1.853v-7.388v-6.134v-7.411C114.483,382.077,114.228,381.454,113.717,380.943z"/>
		<path fill="#FFFFFF" d="M124.195,374.938h5.239l5.239,18.324v-18.324h5.239v36.649h-5.239l-5.239-18.325v18.325h-5.239V374.938z"
			/>
		<path fill="#FFFFFF" d="M151.747,374.938h15.692v5.239H162.2v31.41h-5.214v-31.41h-5.239V374.938z"/>
		<path fill="#FFFFFF" d="M169.791,374.938h5.239v15.719h5.239v-15.719h5.239v36.649h-5.239v-15.692h-5.239v15.692h-5.239V374.938z"
			/>
		<path fill="#FFFFFF" d="M190.518,411.587v-36.649h15.718v5.24h-10.479v10.479h7.849v5.238h-7.849v10.453h10.479v5.239H190.518
			L190.518,411.587z"/>
		<path fill="#FFFFFF" d="M219.373,374.988l10.479,0.052c1.433,0,2.654,0.507,3.668,1.521c1.014,1.015,1.521,2.235,1.521,3.668
			v10.479c0,1.994-0.86,3.494-2.582,4.498l2.582,16.383h-5.188l-2.605-15.691h-2.686v15.691h-5.188V374.988z M224.561,380.177
			v10.581h3.299c0.562,0,1.033-0.199,1.418-0.601c0.384-0.401,0.574-0.865,0.574-1.394v-6.543c0-0.562-0.19-1.044-0.574-1.443
			c-0.385-0.4-0.856-0.602-1.418-0.602L224.561,380.177L224.561,380.177z"/>
		<path fill="#FFFFFF" d="M241.506,377.251c1.533-1.543,3.383-2.313,5.546-2.313c2.164,0,4.013,0.771,5.546,2.313
			c1.534,1.542,2.301,3.396,2.301,5.558v20.934c0,2.164-0.767,4.013-2.301,5.546c-1.533,1.532-3.382,2.3-5.546,2.3
			c-2.163,0-4.013-0.768-5.546-2.3c-1.533-1.533-2.3-3.382-2.3-5.546v-20.934C239.206,380.646,239.973,378.793,241.506,377.251z
			 M248.918,380.943c-0.512-0.512-1.134-0.768-1.866-0.768c-0.731,0-1.351,0.256-1.853,0.768c-0.504,0.511-0.754,1.134-0.754,1.865
			v7.411v6.134v7.388c0,0.731,0.25,1.351,0.754,1.853c0.502,0.504,1.119,0.754,1.853,0.754s1.354-0.25,1.866-0.754
			c0.512-0.502,0.768-1.119,0.768-1.853v-7.388v-6.134v-7.411C249.686,382.077,249.43,381.454,248.918,380.943z"/>
		<path fill="#FFFFFF" d="M264.469,374.938h5.188l7.848,36.649h-5.188l-1.56-7.846l-7.387-0.052l-1.56,7.896h-5.188L264.469,374.938
			z M267.05,385.416l-2.632,13.137h5.29l-2.606-13.137H267.05z"/>
		<path fill="#FFFFFF" d="M280.109,374.938h10.479c1.433,0,2.654,0.508,3.668,1.521c1.015,1.016,1.521,2.253,1.521,3.719V406.4
			c0,1.432-0.506,2.654-1.521,3.668c-1.014,1.015-2.235,1.521-3.668,1.521h-10.479V374.938z M285.299,380.126v26.272h3.297
			c0.562,0,1.035-0.191,1.42-0.574c0.383-0.385,0.573-0.856,0.573-1.42v-22.285c0-0.562-0.19-1.035-0.573-1.419
			c-0.385-0.384-0.856-0.574-1.42-0.574H285.299L285.299,380.126z"/>
	</g>
</g>
<text transform="matrix(1 0 0 1 100.9297 267.0781)" font-family="'Georgia'" font-size="81.2752">Klara</text>
</svg>
